<svg xmlns="http://www.w3.org/2000/svg" width="30.796" height="30" viewBox="0 0 30.796 30">
  <path id="Path_222" data-name="Path 222" d="M4.017,5.286V1H6.695V5.286h4.017V8.143H6.695v4.286H4.017V8.143H0V5.286Zm4.017,8.571V9.571h4.017V5.286h9.373l2.45,2.857h4.244A2.78,2.78,0,0,1,30.8,11V28.143A2.78,2.78,0,0,1,28.118,31H6.695a2.78,2.78,0,0,1-2.678-2.857V13.857Zm9.373,12.857A6.932,6.932,0,0,0,24.1,19.571a6.932,6.932,0,0,0-6.695-7.143,6.932,6.932,0,0,0-6.695,7.143A6.932,6.932,0,0,0,17.406,26.714Zm-4.285-7.143a4.43,4.43,0,0,0,4.285,4.571,4.43,4.43,0,0,0,4.285-4.571A4.43,4.43,0,0,0,17.406,15a4.43,4.43,0,0,0-4.285,4.571Z" transform="translate(0 -1)" fill="#414141"/>
</svg>
