<svg id="Component_65_1" data-name="Component 65 – 1" xmlns="http://www.w3.org/2000/svg" width="28" height="28" viewBox="0 0 28 28">
  <rect id="Rectangle_315" data-name="Rectangle 315" width="28" height="28" fill="#414141" opacity="0.003"/>
  <path id="add_post" data-name="add post" d="M11.029,16.189h2.58v2.58a1.29,1.29,0,1,0,2.58,0v-2.58h2.58a1.29,1.29,0,1,0,0-2.58h-2.58v-2.58a1.29,1.29,0,0,0-2.58,0v2.58h-2.58a1.29,1.29,0,0,0,0,2.58ZM26.508,2H3.29A1.29,1.29,0,0,0,2,3.29V26.508A1.29,1.29,0,0,0,3.29,27.8H26.508a1.29,1.29,0,0,0,1.29-1.29V3.29A1.29,1.29,0,0,0,26.508,2Zm-1.29,23.218H4.58V4.58H25.218Z" transform="translate(-1 -1.112)" fill="#414141"/>
</svg>
